<?xml version="1.0" encoding="utf-8"?>
<!-- Generator: Adobe Illustrator 16.0.0, SVG Export Plug-In . SVG Version: 6.00 Build 0)  -->
<!DOCTYPE svg PUBLIC "-//W3C//DTD SVG 1.1//EN" "http://www.w3.org/Graphics/SVG/1.1/DTD/svg11.dtd">
<svg version="1.1" id="Layer_1" xmlns="http://www.w3.org/2000/svg" xmlns:xlink="http://www.w3.org/1999/xlink" x="0px" y="0px"
	 width="575.689px" height="144.927px" viewBox="0 0 575.689 144.927" enable-background="new 0 0 575.689 144.927"
	 xml:space="preserve">
<g>
	<defs>
		<rect id="SVGID_1_" width="575.689" height="144.927"/>
	</defs>
	<clipPath id="SVGID_2_">
		<use xlink:href="#SVGID_1_"  overflow="visible"/>
	</clipPath>
	<path clip-path="url(#SVGID_2_)" fill="#FFFFFF" d="M143.438,31.843v12.784c5.257,0.435,7.901,3.232,7.901,8.407v39.175
		c0,5.225-2.644,8.056-7.901,8.457v12.522c17.615-0.396,26.42-8.207,26.475-23.396V54.06
		C169.858,39.379,161.053,31.966,143.438,31.843 M178.696,53.718v35.767c0.089,15.28,8.744,23.221,25.974,23.704v-12.522
		c-5.064-0.457-7.599-3.288-7.599-8.457V53.034c0-5.092,2.535-7.894,7.599-8.407V31.843
		C187.303,32.44,178.624,39.765,178.696,53.718 M207.819,31.843v12.784c5.236,0.435,7.851,3.232,7.851,8.407v39.175
		c0,5.225-2.615,8.056-7.851,8.457v12.522c17.584-0.396,26.399-8.207,26.449-23.396V54.06
		C234.218,39.379,225.403,31.966,207.819,31.843 M114.331,53.718v35.767c0.105,15.28,8.744,23.221,25.984,23.704v-12.522
		c-5.087-0.457-7.619-3.288-7.619-8.457V53.034c0-5.092,2.532-7.894,7.619-8.407V31.843
		C122.937,32.44,114.298,39.765,114.331,53.718 M50.948,111.655h17.936V33.559H50.948V111.655z M19.772,129.689h22.217v-9.205
		H31.865V24.959h10.124v-9.617H19.772V129.689z M243.563,33.56v78.096h16.744V64.552l20.728,40.947V74.832L260.307,33.56H243.563z
		 M86.918,65.988H72.177v13.058h14.741v32.609h18.067V33.56H86.918V65.988z M532.697,15.342v9.202h10.128v95.514h-10.128v9.632
		h22.21V15.342H532.697z M466.587,33.56v78.096h16.744V64.447l20.738,40.936V74.731L483.331,33.56H466.587z M367.124,31.843v12.784
		c5.72,0.181,8.597,2.746,8.597,7.806v7.198h17.42v-6.167C393.141,38.954,384.458,31.756,367.124,31.843 M418.415,33.56
		l-19.795,78.096h17.804l13.658-61.104l6.202,31.782h-10.306l-2.638,12.854h15.432l3.79,16.468h18.739L441.536,33.56H418.415z
		 M284.184,111.655h16.877V33.56h-16.966L284.184,111.655z M507.197,111.655h16.882V33.56h-16.948L507.197,111.655z
		 M310.896,111.655h18.388V33.559h-18.388V111.655z M338.735,53.127v36.996c-0.083,15.363,8.457,23.237,25.582,23.065v-12.522
		c-4.812-0.518-7.228-3.121-7.228-7.803V52.433c0-4.663,2.416-7.293,7.228-7.806V31.843
		C347.192,31.843,338.652,39.016,338.735,53.127 M365.662,79.008h5.903c2.716,0.08,4.11,1.705,4.155,4.882v8.974
		c0,5.079-2.877,7.643-8.597,7.803v12.522c6.307,0.228,10.919-2.267,13.882-7.15v-0.115l3.76,5.732h8.375V66.026h-27.479V79.008z"/>
	<path clip-path="url(#SVGID_2_)" d="M0,144.927h575.689V0H0V144.927z M41.989,24.959H31.865v95.525h10.124v9.205H19.772V15.342
		h22.217V24.959z M68.884,111.656H50.948V33.56h17.936V111.656z M104.985,111.656H86.918v-32.61H72.177V65.987h14.741V33.56h18.067
		V111.656z M140.315,44.626c-5.087,0.513-7.619,3.315-7.619,8.407v39.175c0,5.169,2.532,8,7.619,8.457v12.522
		c-17.24-0.483-25.879-8.424-25.984-23.704V53.717c-0.033-13.952,8.606-21.278,25.984-21.875V44.626z M169.913,89.794
		c-0.055,15.188-8.86,22.998-26.475,23.395v-12.522c5.257-0.401,7.901-3.232,7.901-8.457V53.034c0-5.175-2.644-7.972-7.901-8.407
		V31.842c17.615,0.123,26.42,7.536,26.475,22.218V89.794z M204.67,44.626c-5.064,0.513-7.599,3.315-7.599,8.407v39.175
		c0,5.169,2.535,8,7.599,8.457v12.522c-17.23-0.483-25.885-8.424-25.974-23.704V53.717c-0.072-13.952,8.607-21.278,25.974-21.875
		V44.626z M234.268,89.794c-0.05,15.188-8.865,22.998-26.449,23.395v-12.522c5.236-0.401,7.851-3.232,7.851-8.457V53.034
		c0-5.175-2.615-7.972-7.851-8.407V31.842c17.584,0.123,26.399,7.536,26.449,22.218V89.794z M281.034,105.499l-20.728-40.947v47.104
		h-16.743V33.56h16.743l20.728,41.272V105.499z M301.062,111.656h-16.877l-0.089-78.097h16.966V111.656z M329.283,111.656h-18.388
		V33.56h18.388V111.656z M364.317,44.626c-4.812,0.513-7.228,3.143-7.228,7.806v40.432c0,4.681,2.416,7.284,7.228,7.802v12.522
		c-17.125,0.172-25.665-7.701-25.582-23.065V53.126c-0.083-14.111,8.457-21.284,25.582-21.284V44.626z M393.142,111.656h-8.375
		l-3.761-5.733v0.115c-2.963,4.884-7.575,7.378-13.882,7.15v-12.522c5.72-0.16,8.598-2.724,8.598-7.802V83.89
		c-0.046-3.177-1.44-4.802-4.156-4.882h-5.903V66.025h27.479V111.656z M393.142,59.63h-17.42v-7.198c0-5.06-2.878-7.624-8.598-7.806
		V31.842c17.334-0.087,26.018,7.112,26.018,21.621V59.63z M442.562,111.656l-3.79-16.469h-15.432l2.638-12.854h10.306l-6.202-31.783
		l-13.658,61.105H398.62l19.795-78.097h23.12l19.767,78.097H442.562z M504.069,105.383l-20.738-40.936v47.209h-16.744V33.56h16.744
		l20.738,41.172V105.383z M524.079,111.656h-16.882l-0.066-78.097h16.948V111.656z M554.907,129.689h-22.21v-9.632h10.128V24.543
		h-10.128v-9.201h22.21V129.689z"/>
</g>
</svg>
